<svg width="48" height="48" viewBox="0 0 48 48" fill="none" xmlns="http://www.w3.org/2000/svg">
<path d="M0 4C0 1.79086 1.79086 0 4 0H44C46.2091 0 48 1.79086 48 4V44C48 46.2091 46.2091 48 44 48H4C1.79086 48 0 46.2091 0 44V4Z" fill="#E14817" fill-opacity="0.08"/>
<path d="M26.666 16.0001V10.6801C26.746 10.7467 26.826 10.8267 26.8927 10.8934L34.4393 18.4401C34.506 18.5067 34.586 18.5867 34.6527 18.6667H29.3327C28.6261 18.6646 27.949 18.383 27.4494 17.8833C26.9498 17.3837 26.6681 16.7066 26.666 16.0001Z" fill="#E14817"/>
<path d="M35.92 21.3334H29.3333C27.9188 21.3334 26.5623 20.7715 25.5621 19.7713C24.5619 18.7711 24 17.4145 24 16V9.41337C23.7097 9.36032 23.4151 9.33354 23.12 9.33337H16C14.9391 9.33337 13.9217 9.7548 13.1716 10.5049C12.4214 11.2551 12 12.2725 12 13.3334V34.6667C12 35.7276 12.4214 36.745 13.1716 37.4951C13.9217 38.2453 14.9391 38.6667 16 38.6667H32C33.0609 38.6667 34.0783 38.2453 34.8284 37.4951C35.5786 36.745 36 35.7276 36 34.6667V22.2134C35.9998 21.9182 35.9731 21.6237 35.92 21.3334ZM17.3333 26.6667H22.6667C23.0203 26.6667 23.3594 26.8072 23.6095 27.0572C23.8595 27.3073 24 27.6464 24 28C24 28.3537 23.8595 28.6928 23.6095 28.9429C23.3594 29.1929 23.0203 29.3334 22.6667 29.3334H17.3333C16.9797 29.3334 16.6406 29.1929 16.3905 28.9429C16.1405 28.6928 16 28.3537 16 28C16 27.6464 16.1405 27.3073 16.3905 27.0572C16.6406 26.8072 16.9797 26.6667 17.3333 26.6667ZM30.6667 34.6667H17.3333C16.9797 34.6667 16.6406 34.5262 16.3905 34.2762C16.1405 34.0261 16 33.687 16 33.3334C16 32.9798 16.1405 32.6406 16.3905 32.3906C16.6406 32.1405 16.9797 32 17.3333 32H30.6667C31.0203 32 31.3594 32.1405 31.6095 32.3906C31.8595 32.6406 32 32.9798 32 33.3334C32 33.687 31.8595 34.0261 31.6095 34.2762C31.3594 34.5262 31.0203 34.6667 30.6667 34.6667Z" fill="#E14817"/>
</svg>
